<svg version="1.1" id="Layer_1" xmlns="http://www.w3.org/2000/svg" xmlns:xlink="http://www.w3.org/1999/xlink" x="0px" y="0px"
	 width="100%" viewBox="390 170 245 245" enable-background="new 390 170 245 245" xml:space="preserve">
<path fill="#ae1b1b" opacity="1.000000" stroke="none" 
	d="
M403.000244,322.729218 
	C400.034882,311.010132 397.694855,299.578064 398.702637,287.821136 
	C399.016418,284.160736 399.014374,280.247528 401.272491,276.943695 
	C401.595367,276.471344 401.703583,275.655609 401.558594,275.089020 
	C397.973785,261.084076 404.263397,248.860779 409.714569,237.090591 
	C420.487183,213.830368 438.390076,196.657730 460.954803,184.866348 
	C478.448853,175.724716 497.280396,171.365265 517.320984,172.361725 
	C526.783630,172.832230 535.714172,174.953903 544.661316,177.575180 
	C547.108765,178.292252 549.315308,179.220901 551.011780,181.262589 
	C552.461304,183.007172 554.104614,183.440063 556.679749,183.035248 
	C560.995361,182.356857 564.848877,185.358841 568.286621,187.256256 
	C585.188904,196.585297 599.131042,209.114258 607.653625,226.965836 
	C610.425781,232.772446 613.876343,238.255264 617.019714,243.884445 
	C617.263245,244.320450 617.784180,244.762772 617.751709,245.168121 
	C616.902954,255.753784 625.811401,263.452362 625.847656,274.081848 
	C625.882202,284.221741 626.736816,294.346741 625.501709,304.478912 
	C625.235291,306.664642 624.921082,308.725677 623.298157,310.428986 
	C622.648621,311.110657 621.975586,312.184326 622.017395,313.045410 
	C622.380188,320.526398 619.518005,326.884979 616.848633,333.755646 
	C614.240906,340.467560 611.209473,346.765411 607.600098,352.852386 
	C599.200562,367.017944 587.903564,378.752899 573.818726,386.951508 
	C541.975952,405.486786 508.345215,412.986053 472.688263,398.509003 
	C456.056549,391.756439 441.006592,382.282501 429.388885,368.148499 
	C428.024200,366.488281 426.627197,364.854584 424.922607,362.824432 
	C423.831329,365.517426 426.490692,366.361786 425.695312,368.171509 
	C423.476532,367.729065 422.000641,365.832184 421.726379,364.204620 
	C420.507568,356.972198 415.784576,351.589783 412.139252,345.768951 
	C407.696686,338.675201 406.125671,330.656464 403.000244,322.729218 
M527.684265,190.438354 
	C524.090820,191.564484 522.697327,187.379501 519.257996,187.241394 
	C482.679901,185.772552 454.044647,200.441940 432.582855,229.617310 
	C424.803497,240.192673 419.504028,251.833038 418.355591,265.267639 
	C417.353607,276.988647 412.269775,287.947784 414.058960,300.387878 
	C417.830048,326.607697 429.139343,348.300873 449.040680,366.057709 
	C449.218628,362.676300 450.912720,363.883362 452.337982,364.558960 
	C459.229767,367.825745 462.705261,371.910675 461.622620,375.414124 
	C501.844971,401.513763 556.046753,392.877350 588.141541,353.552094 
	C619.776123,314.790680 615.414917,261.878906 593.383301,233.114212 
	C591.302185,234.323486 591.798767,236.385300 592.171509,237.995026 
	C593.813110,245.084686 592.929016,252.248077 593.070984,259.376434 
	C593.180359,264.865112 593.207520,270.229492 595.423889,275.533051 
	C596.688110,278.558228 596.796143,282.462891 594.044434,285.263153 
	C589.822144,289.559906 581.457458,287.047180 580.204102,280.394318 
	C578.408508,270.862640 572.870483,263.362915 568.597900,255.149017 
	C567.214966,252.490433 565.671326,249.915405 564.201233,247.302170 
	C562.837158,257.560425 563.652649,267.317047 564.783630,277.062775 
	C565.134583,280.086853 565.498535,283.446808 562.534119,285.228973 
	C559.407532,287.108673 556.473511,285.228912 553.779724,283.426697 
	C552.049927,282.269379 551.043518,280.609100 550.124329,278.789093 
	C547.664368,273.918549 549.643677,269.355652 550.174194,264.427399 
	C551.863525,248.735352 552.583679,232.885315 550.239685,217.137238 
	C549.755310,213.883057 549.350952,211.087250 553.231262,209.886505 
	C558.855347,208.146133 567.641663,214.807892 566.650635,220.583969 
	C565.910583,224.896683 567.022156,228.494110 568.589844,232.143921 
	C571.546631,239.027603 574.650208,245.849609 577.799561,252.647781 
	C578.293762,253.714722 578.533691,255.274872 580.539795,255.456451 
	C581.814270,244.364304 583.063599,233.328568 584.367310,222.299271 
	C584.592346,220.396118 583.594177,219.152344 582.451599,217.905960 
	C569.731384,204.029709 554.107117,194.937164 536.088135,189.818710 
	C533.502319,189.084229 530.858887,188.653793 527.684265,190.438354 
z"/>
<path fill="#ae1b1b" opacity="1.000000" stroke="none" 
	d="
M492.816956,346.525452 
	C493.235413,342.371307 491.441467,341.930237 488.295776,342.996277 
	C483.600525,344.587433 475.157928,340.708923 473.208008,336.238678 
	C471.831207,333.082275 474.004150,329.947388 477.617981,329.802765 
	C486.012543,329.466888 494.074371,327.785858 501.677002,324.050110 
	C507.928558,320.978271 518.695862,324.937408 520.644836,330.895142 
	C522.212036,335.685608 520.778076,338.130768 515.793457,338.042480 
	C511.887054,337.973236 510.548859,339.452240 510.188690,343.183929 
	C509.405121,351.302826 508.361359,359.370636 508.969238,367.576141 
	C509.347076,372.676575 508.714478,377.499359 503.239105,380.234070 
	C501.418793,381.143188 500.088196,383.032867 498.010162,384.959717 
	C495.090393,378.075195 492.795929,371.658356 493.217682,363.848663 
	C488.317230,368.280243 482.728241,369.384705 476.632599,369.483337 
	C466.294128,369.650604 457.846191,365.690613 450.693329,358.592957 
	C447.817963,355.739777 445.885498,352.517303 446.063110,348.016876 
	C446.208832,344.323334 444.460297,340.773010 444.008545,336.962311 
	C441.821442,318.513397 456.760284,292.729584 482.475769,292.134460 
	C488.682678,291.990784 495.421387,292.611786 501.139557,296.108337 
	C505.693909,298.893219 508.520325,306.377014 507.149536,311.427216 
	C505.912598,315.984528 498.194916,317.066864 493.493469,313.076324 
	C490.361115,310.417603 487.270599,308.338104 482.928314,308.122803 
	C473.931488,307.676605 468.143738,312.208008 463.993408,319.555603 
	C460.282928,326.124634 458.820648,333.257294 459.340057,340.727570 
	C460.092590,351.551514 471.475494,358.764740 481.522064,354.714752 
	C485.786560,352.995636 490.355530,351.440643 492.816956,346.525452 
z"/>
<path fill="#ae1b1b" opacity="1.000000" stroke="none" 
	d="
M548.933228,293.746826 
	C555.714966,291.086151 560.991882,292.585358 565.533386,298.136566 
	C567.152588,300.115723 568.517883,302.654144 571.921387,300.369171 
	C573.581482,299.254608 574.970154,301.081329 576.164124,302.166534 
	C595.973633,320.171204 591.226501,352.012665 569.051208,366.814362 
	C562.736450,371.029388 555.648132,370.754852 548.752563,370.026245 
	C541.617310,369.272400 536.800964,364.951782 532.007202,359.231689 
	C526.171326,352.268097 522.641296,345.122986 522.781860,336.392517 
	C522.955872,325.581146 525.373901,315.259094 532.482605,306.602631 
	C536.920410,301.198486 543.482666,298.452271 548.933228,293.746826 
M552.125122,313.566193 
	C542.008850,321.568481 536.266479,331.465942 539.313538,344.767700 
	C541.609131,354.788849 551.648560,358.377380 560.473816,353.056213 
	C571.448608,346.439026 574.642761,325.403076 571.008850,317.005554 
	C569.601196,313.752838 568.114624,309.139160 563.374390,309.490997 
	C559.694519,309.764130 555.694519,310.261719 552.125122,313.566193 
z"/>
<path fill="#ae1b1b" opacity="1.000000" stroke="none" 
	d="
M518.686035,229.334259 
	C518.043091,232.379166 518.640869,234.442001 520.748108,236.424393 
	C523.330688,238.854050 523.311035,241.651840 520.398804,244.131622 
	C516.976929,247.045349 515.671082,253.411774 516.933167,257.564819 
	C519.203003,265.033997 518.894409,272.904633 519.819580,280.582794 
	C520.317444,284.714508 516.165100,286.556213 513.590820,288.934906 
	C512.007202,290.398285 510.541504,289.148041 509.530640,287.578949 
	C506.602081,283.033203 504.861023,278.417480 505.455322,272.654114 
	C506.168915,265.733551 505.649170,258.685089 505.648773,251.692001 
	C505.648621,249.107025 504.481140,248.235565 501.832306,248.638321 
	C494.383881,249.770844 491.525360,252.947968 491.246155,260.515656 
	C491.085114,264.880341 491.738953,269.138428 492.485352,273.396393 
	C493.141663,277.140350 492.037262,280.524445 488.477081,281.560669 
	C484.725037,282.652710 483.171936,279.322479 481.749664,276.327148 
	C479.335785,271.243500 480.091187,265.884186 480.039734,260.595764 
	C479.991394,255.617981 480.330017,250.759674 476.015381,246.831772 
	C473.732422,244.753464 472.993256,241.802170 477.500641,240.679443 
	C479.778931,240.111938 479.979004,238.228455 479.907990,236.313126 
	C479.557526,226.861374 479.873535,217.329803 476.573273,208.225571 
	C476.058594,206.805756 475.469574,205.273407 476.949921,204.098633 
	C478.764069,202.658966 481.192688,201.951385 483.053284,203.030457 
	C486.885376,205.252838 490.967285,207.343140 493.353912,211.429504 
	C495.042328,214.320374 495.405853,217.168503 494.284973,220.475922 
	C492.559753,225.566788 492.777069,230.832184 493.646881,236.688950 
	C496.877899,235.943893 499.582581,235.315399 502.289734,234.697708 
	C504.004120,234.306534 504.743011,233.173035 504.872925,231.485352 
	C505.649872,221.393738 506.049622,211.305267 504.426239,201.254959 
	C504.077728,199.097290 503.424866,197.013550 505.506012,195.290314 
	C507.538666,193.607254 509.633362,194.291885 511.621735,195.124557 
	C519.437500,198.397537 522.994080,206.448563 520.914917,214.636276 
	C519.735046,219.282440 519.451599,224.156219 518.686035,229.334259 
z"/>
<path fill="#ae1b1b" opacity="1.000000" stroke="none" 
	d="
M451.693298,257.742188 
	C444.060638,258.405884 438.538605,255.726273 435.330658,249.136780 
	C432.282257,242.874985 434.147400,237.291306 437.947632,231.879959 
	C443.150757,224.470886 449.510590,218.639923 458.068481,215.359756 
	C460.060242,214.596329 461.960358,213.673004 463.144928,211.576218 
	C464.653748,208.905411 467.143097,209.012482 468.930481,210.960312 
	C471.498779,213.759171 473.842773,216.858002 475.751587,220.137756 
	C477.256714,222.723907 478.020721,225.866699 475.865356,228.616302 
	C473.892090,231.133667 471.022217,231.310364 468.110107,230.798828 
	C460.301117,229.427078 454.814117,233.699158 449.639343,238.508606 
	C448.368286,239.689941 447.049408,241.485977 447.871063,243.389206 
	C448.660767,245.218491 450.748840,244.663544 452.342407,244.853607 
	C461.377747,245.931274 469.608063,248.269272 474.520691,257.040924 
	C478.650299,264.414520 477.880615,271.575897 470.764038,276.321716 
	C463.403931,281.229950 456.346741,286.593536 447.306152,289.047546 
	C442.255585,290.418427 437.375732,292.858459 432.657867,290.562134 
	C428.025452,288.307404 423.870544,287.344910 418.696808,289.048248 
	C432.557007,278.477203 450.199341,273.716339 461.615234,259.574188 
	C458.667877,256.514984 455.309784,257.495789 451.693298,257.742188 
z"/>
<path fill="#ae1b1b" opacity="1.000000" stroke="none" 
	d="
M531.562866,284.620239 
	C526.150391,278.690186 527.627625,271.868134 528.089111,265.314453 
	C529.505981,245.191589 529.071045,225.104202 527.109558,205.048950 
	C526.798706,201.870438 527.246277,199.076324 530.794006,199.697632 
	C535.997925,200.608963 541.148376,202.425415 544.154602,207.398102 
	C545.463989,209.564056 546.065552,212.068146 545.570312,214.595901 
	C542.009460,232.768585 540.341858,251.038879 542.127563,269.557526 
	C542.505371,273.476227 542.868896,277.471680 541.068054,281.329956 
	C538.620361,286.574310 537.493774,287.120941 531.562866,284.620239 
z"/>
</svg>